# xmcd
#
# Track frame offsets: 
#        150
#        29543
#        54005
#        69605
#        90041
#        107246
#        136118
#        154889
#        169666
#        187076
#
# Disc length: 2689 seconds
#
# Revision: 1
# Processed by: cddbd v1.5.2PL0 Copyright (c) Steve Scherf et al.
# Submitted via: ExactAudioCopy v1.2
#
DISCID=7a0a7f0a
DTITLE=Whitesnake - 1987 [30th Anniversary Super Deluxe Edition] (Disc
DTITLE=4) [87 Versions 2017 Remixes]
DYEAR=1987
DGENRE=Rock
TTITLE0=Still Of The Night (Remix) [2017 Remixes]
TTITLE1=Is This Love (Remix) [2017 Remixes]
TTITLE2=Give Me All Your Love (Remix) [2017 Remixes]
TTITLE3=Here I Go Again 87 (Remix) [2017 Remixes]
TTITLE4=Standing In The Shadows [1987 Versions - Japan Mini-Album]
TTITLE5=Looking For Love [1987 Versions - Japan Mini-Album]
TTITLE6=You’re Gonna Break My Heart Again [1987 Versions - Japan Mini-
TTITLE6=Album]
TTITLE7=Need Your Love So Bad [1987 Versions - Japan Mini-Album]
TTITLE8=Here I Go Again [Radio Mix]
TTITLE9=Give Me All Your Love [Single Version]
EXTD=
EXTT0=
EXTT1=
EXTT2=
EXTT3=
EXTT4=
EXTT5=
EXTT6=
EXTT7=
EXTT8=
EXTT9=
PLAYORDER=
